# xmcd
#
# Track frame offsets:
#	150
#	9879
#	26057
#	41322
#	54608
#	72654
#	88881
#	108951
#	127530
#	141592
#	152467
# Disc length: 2460 seconds
# Revision: 1
# Processed by: cddbd v1.5.2PL0 Copyright (c) Steve Scherf et al.
#
# Submitted via: libkcddb 0.21
#
DISCID=89099a0b
DTITLE=Rock'n Rodeo - If
DYEAR=1900
DGENRE=Country
TTITLE0=How Do
TTITLE1=Honey I'm Home
TTITLE2=One Step Forward
TTITLE3=That's The Kind Of Love
TTITLE4=High Lonesome Sound
TTITLE5=If
TTITLE6=Papa Was A Rolling Stone
TTITLE7=When You Say Nothing At All
TTITLE8=Don't You Hear Jerusalem Moan
TTITLE9=Sold
TTITLE10=When King Jesus Calls His Children Home
EXTD=
EXTT0=
EXTT1=
EXTT2=
EXTT3=
EXTT4=
EXTT5=
EXTT6=
EXTT7=
EXTT8=
EXTT9=
EXTT10=
PLAYORDER=
